<mxfile host="app.diagrams.net" modified="2021-02-15T09:11:47.396Z" agent="5.0 (Windows NT 10.0; Win64; x64) AppleWebKit/537.36 (KHTML, like Gecko) Chrome/88.0.4324.150 Safari/537.36" etag="aGrPXWgTm6IOciy6Aq3C" version="14.3.0" type="github" pages="2">
  <diagram id="C5RBs43oDa-KdzZeNtuy" name="Page-1">
    <mxGraphModel dx="868" dy="488" grid="1" gridSize="10" guides="1" tooltips="1" connect="1" arrows="1" fold="1" page="1" pageScale="1" pageWidth="827" pageHeight="1169" math="0" shadow="0">
      <root>
        <mxCell id="WIyWlLk6GJQsqaUBKTNV-0" />
        <mxCell id="WIyWlLk6GJQsqaUBKTNV-1" parent="WIyWlLk6GJQsqaUBKTNV-0" />
        <mxCell id="WIyWlLk6GJQsqaUBKTNV-2" value="" style="rounded=0;html=1;jettySize=auto;orthogonalLoop=1;fontSize=11;endArrow=block;endFill=0;endSize=8;strokeWidth=1;shadow=0;labelBackgroundColor=none;edgeStyle=orthogonalEdgeStyle;" parent="WIyWlLk6GJQsqaUBKTNV-1" source="WIyWlLk6GJQsqaUBKTNV-3" target="WIyWlLk6GJQsqaUBKTNV-6" edge="1">
          <mxGeometry relative="1" as="geometry" />
        </mxCell>
        <mxCell id="WIyWlLk6GJQsqaUBKTNV-3" value="admin login" style="rounded=1;whiteSpace=wrap;html=1;fontSize=12;glass=0;strokeWidth=1;shadow=0;" parent="WIyWlLk6GJQsqaUBKTNV-1" vertex="1">
          <mxGeometry x="150" y="80" width="120" height="40" as="geometry" />
        </mxCell>
        <mxCell id="WIyWlLk6GJQsqaUBKTNV-4" value="Yes" style="rounded=0;html=1;jettySize=auto;orthogonalLoop=1;fontSize=11;endArrow=block;endFill=0;endSize=8;strokeWidth=1;shadow=0;labelBackgroundColor=none;edgeStyle=orthogonalEdgeStyle;" parent="WIyWlLk6GJQsqaUBKTNV-1" source="WIyWlLk6GJQsqaUBKTNV-6" target="WIyWlLk6GJQsqaUBKTNV-10" edge="1">
          <mxGeometry y="20" relative="1" as="geometry">
            <mxPoint as="offset" />
          </mxGeometry>
        </mxCell>
        <mxCell id="WIyWlLk6GJQsqaUBKTNV-5" value="No" style="edgeStyle=orthogonalEdgeStyle;rounded=0;html=1;jettySize=auto;orthogonalLoop=1;fontSize=11;endArrow=block;endFill=0;endSize=8;strokeWidth=1;shadow=0;labelBackgroundColor=none;" parent="WIyWlLk6GJQsqaUBKTNV-1" source="WIyWlLk6GJQsqaUBKTNV-6" target="WIyWlLk6GJQsqaUBKTNV-7" edge="1">
          <mxGeometry y="10" relative="1" as="geometry">
            <mxPoint as="offset" />
          </mxGeometry>
        </mxCell>
        <mxCell id="WIyWlLk6GJQsqaUBKTNV-6" value="memasukkan username dan password" style="rhombus;whiteSpace=wrap;html=1;shadow=0;fontFamily=Helvetica;fontSize=12;align=center;strokeWidth=1;spacing=6;spacingTop=-4;" parent="WIyWlLk6GJQsqaUBKTNV-1" vertex="1">
          <mxGeometry x="150" y="170" width="120" height="100" as="geometry" />
        </mxCell>
        <mxCell id="4Alwis1qKZL1sl8xGbqd-2" style="edgeStyle=orthogonalEdgeStyle;rounded=0;orthogonalLoop=1;jettySize=auto;html=1;exitX=0.5;exitY=0;exitDx=0;exitDy=0;entryX=1;entryY=0.5;entryDx=0;entryDy=0;" edge="1" parent="WIyWlLk6GJQsqaUBKTNV-1" source="WIyWlLk6GJQsqaUBKTNV-7" target="WIyWlLk6GJQsqaUBKTNV-3">
          <mxGeometry relative="1" as="geometry" />
        </mxCell>
        <mxCell id="WIyWlLk6GJQsqaUBKTNV-7" value="login gagal" style="rounded=1;whiteSpace=wrap;html=1;fontSize=12;glass=0;strokeWidth=1;shadow=0;" parent="WIyWlLk6GJQsqaUBKTNV-1" vertex="1">
          <mxGeometry x="330" y="200" width="120" height="40" as="geometry" />
        </mxCell>
        <mxCell id="WIyWlLk6GJQsqaUBKTNV-10" value="masuk ke dashboard" style="rhombus;whiteSpace=wrap;html=1;shadow=0;fontFamily=Helvetica;fontSize=12;align=center;strokeWidth=1;spacing=6;spacingTop=-4;" parent="WIyWlLk6GJQsqaUBKTNV-1" vertex="1">
          <mxGeometry x="155" y="320" width="110" height="90" as="geometry" />
        </mxCell>
      </root>
    </mxGraphModel>
  </diagram>
  <diagram id="_GtElA_Up8vUdJUjJvz9" name="Page-2">
    <mxGraphModel dx="1736" dy="976" grid="1" gridSize="10" guides="1" tooltips="1" connect="1" arrows="1" fold="1" page="1" pageScale="1" pageWidth="1169" pageHeight="1654" math="0" shadow="0">
      <root>
        <mxCell id="G3ZkEbGaR9kuROCJ14Rw-0" />
        <mxCell id="G3ZkEbGaR9kuROCJ14Rw-1" parent="G3ZkEbGaR9kuROCJ14Rw-0" />
        <mxCell id="SqQvsYoHiRkLZMvJoNwv-1" style="edgeStyle=orthogonalEdgeStyle;rounded=0;orthogonalLoop=1;jettySize=auto;html=1;entryX=0.5;entryY=0;entryDx=0;entryDy=0;" edge="1" parent="G3ZkEbGaR9kuROCJ14Rw-1" source="SqQvsYoHiRkLZMvJoNwv-0" target="lf2pu00sM3WdBxK_Zstw-0">
          <mxGeometry relative="1" as="geometry">
            <mxPoint x="160" y="150" as="targetPoint" />
          </mxGeometry>
        </mxCell>
        <mxCell id="SqQvsYoHiRkLZMvJoNwv-0" value="user register" style="rounded=1;whiteSpace=wrap;html=1;" vertex="1" parent="G3ZkEbGaR9kuROCJ14Rw-1">
          <mxGeometry x="464" y="80" width="120" height="50" as="geometry" />
        </mxCell>
        <mxCell id="lf2pu00sM3WdBxK_Zstw-1" style="edgeStyle=orthogonalEdgeStyle;rounded=0;orthogonalLoop=1;jettySize=auto;html=1;entryX=0;entryY=0.5;entryDx=0;entryDy=0;" edge="1" parent="G3ZkEbGaR9kuROCJ14Rw-1" source="lf2pu00sM3WdBxK_Zstw-0" target="lf2pu00sM3WdBxK_Zstw-3">
          <mxGeometry relative="1" as="geometry">
            <mxPoint x="280" y="220" as="targetPoint" />
          </mxGeometry>
        </mxCell>
        <mxCell id="lf2pu00sM3WdBxK_Zstw-53" style="edgeStyle=orthogonalEdgeStyle;rounded=0;orthogonalLoop=1;jettySize=auto;html=1;entryX=0.5;entryY=0;entryDx=0;entryDy=0;" edge="1" parent="G3ZkEbGaR9kuROCJ14Rw-1" source="lf2pu00sM3WdBxK_Zstw-0" target="lf2pu00sM3WdBxK_Zstw-8">
          <mxGeometry relative="1" as="geometry" />
        </mxCell>
        <mxCell id="lf2pu00sM3WdBxK_Zstw-0" value="mengisi data diri" style="rhombus;whiteSpace=wrap;html=1;" vertex="1" parent="G3ZkEbGaR9kuROCJ14Rw-1">
          <mxGeometry x="459" y="160" width="130" height="80" as="geometry" />
        </mxCell>
        <mxCell id="lf2pu00sM3WdBxK_Zstw-2" value="salah" style="text;html=1;align=center;verticalAlign=middle;resizable=0;points=[];autosize=1;" vertex="1" parent="G3ZkEbGaR9kuROCJ14Rw-1">
          <mxGeometry x="584" y="180" width="40" height="20" as="geometry" />
        </mxCell>
        <mxCell id="lf2pu00sM3WdBxK_Zstw-52" style="edgeStyle=orthogonalEdgeStyle;rounded=0;orthogonalLoop=1;jettySize=auto;html=1;entryX=1;entryY=0.5;entryDx=0;entryDy=0;" edge="1" parent="G3ZkEbGaR9kuROCJ14Rw-1" source="lf2pu00sM3WdBxK_Zstw-3" target="SqQvsYoHiRkLZMvJoNwv-0">
          <mxGeometry relative="1" as="geometry">
            <Array as="points">
              <mxPoint x="680" y="105" />
            </Array>
          </mxGeometry>
        </mxCell>
        <mxCell id="lf2pu00sM3WdBxK_Zstw-3" value="registrasi gagal" style="rounded=1;whiteSpace=wrap;html=1;" vertex="1" parent="G3ZkEbGaR9kuROCJ14Rw-1">
          <mxGeometry x="630" y="180" width="100" height="40" as="geometry" />
        </mxCell>
        <mxCell id="lf2pu00sM3WdBxK_Zstw-7" value="benar" style="text;html=1;align=center;verticalAlign=middle;resizable=0;points=[];autosize=1;" vertex="1" parent="G3ZkEbGaR9kuROCJ14Rw-1">
          <mxGeometry x="469" y="240" width="50" height="20" as="geometry" />
        </mxCell>
        <mxCell id="lf2pu00sM3WdBxK_Zstw-55" style="edgeStyle=orthogonalEdgeStyle;rounded=0;orthogonalLoop=1;jettySize=auto;html=1;entryX=0.5;entryY=0;entryDx=0;entryDy=0;" edge="1" parent="G3ZkEbGaR9kuROCJ14Rw-1" source="lf2pu00sM3WdBxK_Zstw-8" target="lf2pu00sM3WdBxK_Zstw-15">
          <mxGeometry relative="1" as="geometry" />
        </mxCell>
        <mxCell id="lf2pu00sM3WdBxK_Zstw-8" value="login" style="rounded=1;whiteSpace=wrap;html=1;" vertex="1" parent="G3ZkEbGaR9kuROCJ14Rw-1">
          <mxGeometry x="469" y="280" width="110" height="40" as="geometry" />
        </mxCell>
        <mxCell id="lf2pu00sM3WdBxK_Zstw-57" style="edgeStyle=orthogonalEdgeStyle;rounded=0;orthogonalLoop=1;jettySize=auto;html=1;entryX=0;entryY=0.5;entryDx=0;entryDy=0;" edge="1" parent="G3ZkEbGaR9kuROCJ14Rw-1" source="lf2pu00sM3WdBxK_Zstw-15" target="lf2pu00sM3WdBxK_Zstw-18">
          <mxGeometry relative="1" as="geometry" />
        </mxCell>
        <mxCell id="lf2pu00sM3WdBxK_Zstw-59" style="edgeStyle=orthogonalEdgeStyle;rounded=0;orthogonalLoop=1;jettySize=auto;html=1;entryX=0.5;entryY=0;entryDx=0;entryDy=0;" edge="1" parent="G3ZkEbGaR9kuROCJ14Rw-1" source="lf2pu00sM3WdBxK_Zstw-15" target="lf2pu00sM3WdBxK_Zstw-21">
          <mxGeometry relative="1" as="geometry" />
        </mxCell>
        <mxCell id="lf2pu00sM3WdBxK_Zstw-15" value="memasukkan&lt;br&gt;user nama&lt;br&gt;dan password" style="rhombus;whiteSpace=wrap;html=1;" vertex="1" parent="G3ZkEbGaR9kuROCJ14Rw-1">
          <mxGeometry x="454" y="360" width="140" height="120" as="geometry" />
        </mxCell>
        <mxCell id="lf2pu00sM3WdBxK_Zstw-17" value="salah" style="text;html=1;align=center;verticalAlign=middle;resizable=0;points=[];autosize=1;" vertex="1" parent="G3ZkEbGaR9kuROCJ14Rw-1">
          <mxGeometry x="594" y="400" width="40" height="20" as="geometry" />
        </mxCell>
        <mxCell id="lf2pu00sM3WdBxK_Zstw-19" style="edgeStyle=orthogonalEdgeStyle;rounded=0;orthogonalLoop=1;jettySize=auto;html=1;entryX=1;entryY=0.5;entryDx=0;entryDy=0;" edge="1" parent="G3ZkEbGaR9kuROCJ14Rw-1" source="lf2pu00sM3WdBxK_Zstw-18" target="lf2pu00sM3WdBxK_Zstw-8">
          <mxGeometry relative="1" as="geometry">
            <Array as="points">
              <mxPoint x="680" y="300" />
            </Array>
          </mxGeometry>
        </mxCell>
        <mxCell id="lf2pu00sM3WdBxK_Zstw-18" value="login gagal" style="rounded=1;whiteSpace=wrap;html=1;" vertex="1" parent="G3ZkEbGaR9kuROCJ14Rw-1">
          <mxGeometry x="650" y="405" width="100" height="40" as="geometry" />
        </mxCell>
        <mxCell id="lf2pu00sM3WdBxK_Zstw-60" style="edgeStyle=orthogonalEdgeStyle;rounded=0;orthogonalLoop=1;jettySize=auto;html=1;entryX=0.5;entryY=0;entryDx=0;entryDy=0;" edge="1" parent="G3ZkEbGaR9kuROCJ14Rw-1" source="lf2pu00sM3WdBxK_Zstw-21" target="lf2pu00sM3WdBxK_Zstw-27">
          <mxGeometry relative="1" as="geometry" />
        </mxCell>
        <mxCell id="lf2pu00sM3WdBxK_Zstw-21" value="masuk ke aplikasi" style="rounded=1;whiteSpace=wrap;html=1;" vertex="1" parent="G3ZkEbGaR9kuROCJ14Rw-1">
          <mxGeometry x="461.5" y="520" width="125" height="40" as="geometry" />
        </mxCell>
        <mxCell id="lf2pu00sM3WdBxK_Zstw-61" style="edgeStyle=orthogonalEdgeStyle;rounded=0;orthogonalLoop=1;jettySize=auto;html=1;entryX=0.5;entryY=0;entryDx=0;entryDy=0;" edge="1" parent="G3ZkEbGaR9kuROCJ14Rw-1" source="lf2pu00sM3WdBxK_Zstw-27" target="lf2pu00sM3WdBxK_Zstw-29">
          <mxGeometry relative="1" as="geometry" />
        </mxCell>
        <mxCell id="lf2pu00sM3WdBxK_Zstw-27" value="memilih barang" style="rounded=1;whiteSpace=wrap;html=1;" vertex="1" parent="G3ZkEbGaR9kuROCJ14Rw-1">
          <mxGeometry x="461.5" y="610" width="125" height="40" as="geometry" />
        </mxCell>
        <mxCell id="lf2pu00sM3WdBxK_Zstw-31" style="edgeStyle=orthogonalEdgeStyle;rounded=0;orthogonalLoop=1;jettySize=auto;html=1;entryX=0;entryY=0.5;entryDx=0;entryDy=0;" edge="1" parent="G3ZkEbGaR9kuROCJ14Rw-1" source="lf2pu00sM3WdBxK_Zstw-29" target="lf2pu00sM3WdBxK_Zstw-33">
          <mxGeometry relative="1" as="geometry">
            <mxPoint x="260" y="725" as="targetPoint" />
          </mxGeometry>
        </mxCell>
        <mxCell id="lf2pu00sM3WdBxK_Zstw-35" style="edgeStyle=orthogonalEdgeStyle;rounded=0;orthogonalLoop=1;jettySize=auto;html=1;" edge="1" parent="G3ZkEbGaR9kuROCJ14Rw-1" source="lf2pu00sM3WdBxK_Zstw-29" target="lf2pu00sM3WdBxK_Zstw-36">
          <mxGeometry relative="1" as="geometry">
            <mxPoint x="157.5" y="820" as="targetPoint" />
          </mxGeometry>
        </mxCell>
        <mxCell id="lf2pu00sM3WdBxK_Zstw-29" value="memasukkan jumlah" style="rhombus;whiteSpace=wrap;html=1;" vertex="1" parent="G3ZkEbGaR9kuROCJ14Rw-1">
          <mxGeometry x="477.75" y="700" width="92.5" height="90" as="geometry" />
        </mxCell>
        <mxCell id="lf2pu00sM3WdBxK_Zstw-32" value="salah" style="text;html=1;align=center;verticalAlign=middle;resizable=0;points=[];autosize=1;" vertex="1" parent="G3ZkEbGaR9kuROCJ14Rw-1">
          <mxGeometry x="579" y="710" width="40" height="20" as="geometry" />
        </mxCell>
        <mxCell id="lf2pu00sM3WdBxK_Zstw-34" style="edgeStyle=orthogonalEdgeStyle;rounded=0;orthogonalLoop=1;jettySize=auto;html=1;entryX=1;entryY=0.5;entryDx=0;entryDy=0;" edge="1" parent="G3ZkEbGaR9kuROCJ14Rw-1" source="lf2pu00sM3WdBxK_Zstw-33" target="lf2pu00sM3WdBxK_Zstw-27">
          <mxGeometry relative="1" as="geometry">
            <Array as="points">
              <mxPoint x="710" y="630" />
            </Array>
          </mxGeometry>
        </mxCell>
        <mxCell id="lf2pu00sM3WdBxK_Zstw-33" value="gagal memasukkan ke keranjang" style="rounded=1;whiteSpace=wrap;html=1;" vertex="1" parent="G3ZkEbGaR9kuROCJ14Rw-1">
          <mxGeometry x="660" y="717.5" width="120" height="55" as="geometry" />
        </mxCell>
        <mxCell id="lf2pu00sM3WdBxK_Zstw-41" style="edgeStyle=orthogonalEdgeStyle;rounded=0;orthogonalLoop=1;jettySize=auto;html=1;" edge="1" parent="G3ZkEbGaR9kuROCJ14Rw-1" source="lf2pu00sM3WdBxK_Zstw-36" target="lf2pu00sM3WdBxK_Zstw-42">
          <mxGeometry relative="1" as="geometry">
            <mxPoint x="157.5" y="920" as="targetPoint" />
          </mxGeometry>
        </mxCell>
        <mxCell id="lf2pu00sM3WdBxK_Zstw-36" value="masuk ke keranjang" style="rounded=1;whiteSpace=wrap;html=1;" vertex="1" parent="G3ZkEbGaR9kuROCJ14Rw-1">
          <mxGeometry x="464" y="850" width="120" height="60" as="geometry" />
        </mxCell>
        <mxCell id="lf2pu00sM3WdBxK_Zstw-38" value="ya" style="text;html=1;align=center;verticalAlign=middle;resizable=0;points=[];autosize=1;" vertex="1" parent="G3ZkEbGaR9kuROCJ14Rw-1">
          <mxGeometry x="476.5" y="1050" width="30" height="20" as="geometry" />
        </mxCell>
        <mxCell id="lf2pu00sM3WdBxK_Zstw-40" style="edgeStyle=orthogonalEdgeStyle;rounded=0;orthogonalLoop=1;jettySize=auto;html=1;entryX=0.5;entryY=0;entryDx=0;entryDy=0;" edge="1" parent="G3ZkEbGaR9kuROCJ14Rw-1" source="lf2pu00sM3WdBxK_Zstw-39" target="SqQvsYoHiRkLZMvJoNwv-0">
          <mxGeometry relative="1" as="geometry" />
        </mxCell>
        <mxCell id="lf2pu00sM3WdBxK_Zstw-39" value="mulai" style="rounded=1;whiteSpace=wrap;html=1;" vertex="1" parent="G3ZkEbGaR9kuROCJ14Rw-1">
          <mxGeometry x="464" width="120" height="50" as="geometry" />
        </mxCell>
        <mxCell id="lf2pu00sM3WdBxK_Zstw-43" style="edgeStyle=orthogonalEdgeStyle;rounded=0;orthogonalLoop=1;jettySize=auto;html=1;entryX=0;entryY=0.5;entryDx=0;entryDy=0;" edge="1" parent="G3ZkEbGaR9kuROCJ14Rw-1" source="lf2pu00sM3WdBxK_Zstw-42" target="lf2pu00sM3WdBxK_Zstw-45">
          <mxGeometry relative="1" as="geometry">
            <mxPoint x="250" y="950" as="targetPoint" />
          </mxGeometry>
        </mxCell>
        <mxCell id="lf2pu00sM3WdBxK_Zstw-47" style="edgeStyle=orthogonalEdgeStyle;rounded=0;orthogonalLoop=1;jettySize=auto;html=1;" edge="1" parent="G3ZkEbGaR9kuROCJ14Rw-1" source="lf2pu00sM3WdBxK_Zstw-42" target="lf2pu00sM3WdBxK_Zstw-48">
          <mxGeometry relative="1" as="geometry">
            <mxPoint x="157.5" y="1040" as="targetPoint" />
          </mxGeometry>
        </mxCell>
        <mxCell id="lf2pu00sM3WdBxK_Zstw-42" value="checkout" style="rhombus;whiteSpace=wrap;html=1;" vertex="1" parent="G3ZkEbGaR9kuROCJ14Rw-1">
          <mxGeometry x="484" y="960" width="80" height="80" as="geometry" />
        </mxCell>
        <mxCell id="lf2pu00sM3WdBxK_Zstw-44" value="tidak" style="text;html=1;align=center;verticalAlign=middle;resizable=0;points=[];autosize=1;" vertex="1" parent="G3ZkEbGaR9kuROCJ14Rw-1">
          <mxGeometry x="584" y="970" width="40" height="20" as="geometry" />
        </mxCell>
        <mxCell id="lf2pu00sM3WdBxK_Zstw-45" value="selesai" style="rounded=1;whiteSpace=wrap;html=1;" vertex="1" parent="G3ZkEbGaR9kuROCJ14Rw-1">
          <mxGeometry x="660" y="980" width="110" height="40" as="geometry" />
        </mxCell>
        <mxCell id="lf2pu00sM3WdBxK_Zstw-49" style="edgeStyle=orthogonalEdgeStyle;rounded=0;orthogonalLoop=1;jettySize=auto;html=1;" edge="1" parent="G3ZkEbGaR9kuROCJ14Rw-1" source="lf2pu00sM3WdBxK_Zstw-48" target="lf2pu00sM3WdBxK_Zstw-50">
          <mxGeometry relative="1" as="geometry">
            <mxPoint x="157.5" y="1140" as="targetPoint" />
          </mxGeometry>
        </mxCell>
        <mxCell id="lf2pu00sM3WdBxK_Zstw-48" value="bayar" style="rounded=1;whiteSpace=wrap;html=1;" vertex="1" parent="G3ZkEbGaR9kuROCJ14Rw-1">
          <mxGeometry x="466.5" y="1100" width="112.5" height="40" as="geometry" />
        </mxCell>
        <mxCell id="lf2pu00sM3WdBxK_Zstw-50" value="selesai" style="rounded=1;whiteSpace=wrap;html=1;" vertex="1" parent="G3ZkEbGaR9kuROCJ14Rw-1">
          <mxGeometry x="466.5" y="1180" width="112.5" height="40" as="geometry" />
        </mxCell>
        <mxCell id="lf2pu00sM3WdBxK_Zstw-54" style="edgeStyle=orthogonalEdgeStyle;rounded=0;orthogonalLoop=1;jettySize=auto;html=1;exitX=0.5;exitY=1;exitDx=0;exitDy=0;" edge="1" parent="G3ZkEbGaR9kuROCJ14Rw-1" source="lf2pu00sM3WdBxK_Zstw-8" target="lf2pu00sM3WdBxK_Zstw-8">
          <mxGeometry relative="1" as="geometry" />
        </mxCell>
      </root>
    </mxGraphModel>
  </diagram>
</mxfile>
